<svg width="73" height="85" viewBox="0 0 73 85" fill="none" xmlns="http://www.w3.org/2000/svg">
<rect width="37.1221" height="13.1587" transform="matrix(0.968682 -0.248305 0.162356 0.986732 21.6167 37.5462)" fill="#6D6D6D"/>
<path d="M18.1731 34.295L55.7588 25.3685L57.5605 28.0161L21.601 37.2338L18.1731 34.295Z" fill="#535353"/>
<path d="M10.9591 30.1047L52.693 21.0723L60.1142 24.1021L18.2761 33.7768L10.9591 30.1047Z" fill="#211E1E"/>
<path d="M15.5939 38.5823L17.799 34.6639L21.4431 37.8181L17.5015 40.3441L15.5939 38.5823Z" fill="#6B6765"/>
<path d="M61.5671 26.5393L57.9274 27.8119L56.2062 25.4038L60.4914 24.6052L61.5671 26.5393Z" fill="#6B6765"/>
<rect width="7.88528" height="4.86327" transform="matrix(0.890811 0.454375 -0.469555 0.882903 10.7098 30.5791)" fill="#5C5353"/>
<path d="M21.3886 38.3777L22.9154 50.5104L19.1871 51.3801L17.641 40.5191L21.3886 38.3777Z" fill="#535353"/>
<path d="M60.2892 41.0611L58.1323 28.3238L61.7735 27.1602L63.9759 38.7702L60.2892 41.0611Z" fill="#535353"/>
<path d="M8.05124 35.3857L16.6036 39.9419L18.3328 51.3458L10.4157 46.1769L8.05124 35.3857Z" fill="#544B4B"/>
<path d="M23.3896 48.1041L27.8845 46.9519L30.4299 44.5269L32.7342 43.1594L37.7494 42.3238L41.3693 43.4953L45.8968 41.7349L50.3592 41.1909L54.82 39.5976L59.3491 38.8865" stroke="#F9EFEF" stroke-width="0.5"/>
<path d="M44.7179 45.4647L44.7254 45.4629L52.7988 79.0301C53.1734 80.5874 51.6622 81.9344 50.158 81.384C49.5978 81.179 49.1579 80.7354 48.9575 80.1735L37.2208 47.2679L37.4515 47.2124L37.9526 47.0918L38.9549 46.8508L40.9594 46.3687L42.9639 45.8865L43.9662 45.6455L44.4673 45.5249L44.7179 45.4647Z" fill="url(#paint0_linear_155_54)" stroke="#676767" stroke-width="0.5"/>
<path d="M44.503 45.4927L39.3457 50.986L41.1907 53.5104L42.4401 55.774L43.5564 59.5672L45.5609 62.8009L47.8914 67.422L49.4117 72.5657L49.5619 77.2193L51.3681 81.6226" stroke="white" stroke-width="0.5"/>
<g filter="url(#filter0_f_155_54)">
<ellipse cx="34.8784" cy="27.6336" rx="11.0167" ry="1.4578" transform="rotate(-12.1485 34.8784 27.6336)" fill="white"/>
</g>
<defs>
<filter id="filter0_f_155_54" x="21.104" y="21.9118" width="27.5488" height="11.4436" filterUnits="userSpaceOnUse" color-interpolation-filters="sRGB">
<feFlood flood-opacity="0" result="BackgroundImageFix"/>
<feBlend mode="normal" in="SourceGraphic" in2="BackgroundImageFix" result="shape"/>
<feGaussianBlur stdDeviation="1.5" result="effect1_foregroundBlur_155_54"/>
</filter>
<linearGradient id="paint0_linear_155_54" x1="51.1016" y1="68.3118" x2="41.5415" y2="69.2357" gradientUnits="userSpaceOnUse">
<stop stop-color="#D8D7D7"/>
<stop offset="1" stop-color="#010000"/>
</linearGradient>
</defs>
</svg>
