<svg width="90" height="89" viewBox="0 0 90 89" fill="none" xmlns="http://www.w3.org/2000/svg">
<rect width="37.1221" height="13.1587" transform="matrix(0.968682 -0.248305 0.162356 0.986732 25.3089 37.5462)" fill="#6D6D6D"/>
<path d="M21.8653 34.295L59.451 25.3685L61.2527 28.0161L25.2932 37.2338L21.8653 34.295Z" fill="#535353"/>
<path d="M14.6513 30.1047L56.3852 21.0723L63.8064 24.1021L21.9683 33.7768L14.6513 30.1047Z" fill="#211E1E"/>
<path d="M19.2861 38.5823L21.4912 34.6639L25.1353 37.8181L21.1937 40.3441L19.2861 38.5823Z" fill="#6B6765"/>
<path d="M65.2593 26.5393L61.6196 27.8119L59.8984 25.4038L64.1836 24.6052L65.2593 26.5393Z" fill="#6B6765"/>
<rect width="7.88528" height="4.86327" transform="matrix(0.890811 0.454375 -0.469555 0.882903 14.402 30.5791)" fill="#5C5353"/>
<path d="M25.0808 38.3777L26.6076 50.5104L22.8793 51.3801L21.3332 40.5191L25.0808 38.3777Z" fill="#535353"/>
<path d="M63.9814 41.0611L61.8245 28.3238L65.4657 27.1602L67.6681 38.7702L63.9814 41.0611Z" fill="#535353"/>
<path d="M11.7434 35.3857L20.2958 39.9419L22.025 51.3458L14.1079 46.1769L11.7434 35.3857Z" fill="#544B4B"/>
<path d="M27.0818 48.1041L31.5767 46.9519L34.1221 44.5269L36.4264 43.1594L41.4416 42.3238L45.0615 43.4953L49.589 41.7349L54.0514 41.1909L58.5122 39.5976L63.0413 38.8865" stroke="#F9EFEF" stroke-width="0.5"/>
<path d="M48.4101 45.4647L48.4176 45.4629L56.491 79.0301C56.8656 80.5874 55.3544 81.9344 53.8502 81.384C53.29 81.179 52.8501 80.7354 52.6497 80.1735L40.913 47.2679L41.1437 47.2124L41.6448 47.0918L42.6471 46.8508L44.6516 46.3687L46.6561 45.8865L47.6584 45.6455L48.1595 45.5249L48.4101 45.4647Z" fill="url(#paint0_linear_155_54)" stroke="#676767" stroke-width="0.5"/>
<path d="M48.1952 45.4927L43.038 50.986L44.883 53.5104L46.1323 55.774L47.2487 59.5672L49.2531 62.8009L51.5837 67.422L53.104 72.5657L53.2542 77.2193L55.0604 81.6226" stroke="white" stroke-width="0.5"/>
<g filter="url(#filter0_f_155_54)">
<ellipse cx="38.5706" cy="27.6336" rx="11.0167" ry="1.4578" transform="rotate(-12.1485 38.5706 27.6336)" fill="white"/>
</g>
<path d="M48.9096 78.1142C46.9385 75.0796 48.8532 71.0319 52.4495 70.6307L59.3796 69.8578C61.4029 69.6321 63.2992 70.8819 63.8897 72.8302C64.5662 75.0625 63.305 77.4206 61.0727 78.0971L54.3994 80.1196C52.3271 80.7476 50.0892 79.9301 48.9096 78.1142Z" fill="#873737"/>
<defs>
<filter id="filter0_f_155_54" x="24.7962" y="21.9118" width="27.5488" height="11.4436" filterUnits="userSpaceOnUse" color-interpolation-filters="sRGB">
<feFlood flood-opacity="0" result="BackgroundImageFix"/>
<feBlend mode="normal" in="SourceGraphic" in2="BackgroundImageFix" result="shape"/>
<feGaussianBlur stdDeviation="1.5" result="effect1_foregroundBlur_155_54"/>
</filter>
<linearGradient id="paint0_linear_155_54" x1="54.7938" y1="68.3118" x2="45.2336" y2="69.2357" gradientUnits="userSpaceOnUse">
<stop stop-color="#D8D7D7"/>
<stop offset="1" stop-color="#010000"/>
</linearGradient>
</defs>
</svg>
