<svg width="215" height="145" viewBox="0 0 215 145" fill="none" xmlns="http://www.w3.org/2000/svg">
<path d="M87.2933 67.848C85.3222 64.8134 87.2369 60.7657 90.8332 60.3646L97.7633 59.5916C99.7865 59.366 101.683 60.6158 102.273 62.5641V62.5641C102.95 64.7963 101.689 67.1544 99.4564 67.8309L92.7831 69.8534C90.7108 70.4815 88.4728 69.664 87.2933 67.848V67.848Z" fill="#873737"/>
<path d="M110.888 26.7111C109.851 23.0989 110.394 19.1019 112.405 15.5413C114.417 11.9807 117.744 9.12703 121.703 7.56658C125.662 6.00612 129.952 5.85746 133.692 7.15114C137.432 8.44482 140.338 11.0826 141.812 14.5224C143.286 17.9622 143.217 21.9428 141.618 25.6462C140.02 29.3497 137.014 32.4947 133.217 34.435C129.421 36.3752 125.123 36.9634 121.207 36.0787C117.29 35.194 114.053 32.9035 112.159 29.6779L126.621 21.3793L110.888 26.7111Z" fill="#873737" fill-opacity="0.85"/>
<rect x="116" y="46.3771" width="39.5408" height="58.1551" rx="11" transform="rotate(-27.6949 116 46.3771)" fill="url(#paint0_linear_162_10)"/>
<rect x="102" y="58.1562" width="26.8845" height="9" rx="2" transform="rotate(-21.7081 102 58.1562)" fill="#873737"/>
<path d="M149.848 50.5108L144.316 45.9466L145.539 43.2291L148.442 43.505L149.848 50.5108Z" fill="#D12AD4" stroke="#06FA85" stroke-width="0.3"/>
<path d="M150.753 43.3542L143.942 40.5215L143.148 47.8553" stroke="#FAFDFF" stroke-width="0.3"/>
<path d="M143.143 47.8476L149.954 50.6804L150.749 43.3466" stroke="#FAFDFF" stroke-width="0.3"/>
<path d="M152.838 44.12L147.001 39.3785L144.131 45.9899" stroke="#FAFDFF" stroke-width="0.3"/>
<path d="M144.128 45.9815L149.965 50.723L153.058 47.1645L152.836 44.1116" stroke="#FAFDFF" stroke-width="0.3"/>
<path d="M148.549 43.337L141.364 42.7551L142.797 50.1372" stroke="#FAFDFF" stroke-width="0.3"/>
<path d="M142.791 50.1313L145.558 51.877L149.975 50.7132L148.542 43.331" stroke="#FAFDFF" stroke-width="0.3"/>
<rect x="145.856" y="46.5321" width="2.7785" height="0.837715" transform="rotate(-30.6178 145.856 46.5321)" fill="#27D4DF"/>
<path d="M145.112 46.0745L148.251 44.2165L148.187 45.0155L145.796 46.4306L145.112 46.0745Z" fill="white"/>
<rect x="146.09" y="46.476" width="0.469747" height="0.106189" transform="rotate(-30.6178 146.09 46.476)" fill="#FFFCFC"/>
<rect x="146.002" y="46.6996" width="1.849" height="0.106189" transform="rotate(-30.6178 146.002 46.6996)" fill="#FFFCFC"/>
<rect x="146.588" y="46.8666" width="0.979473" height="0.106189" transform="rotate(-30.6178 146.588 46.8666)" fill="#FFFCFC"/>
<path d="M146.24 46.7298L147.668 45.8848L147.734 46.0651L147.606 46.1753L147.02 46.5219L146.491 46.835L146.356 46.8808L146.24 46.7298Z" fill="#FFFCFC"/>
<rect x="147.111" y="45.8651" width="0.469747" height="0.106189" transform="rotate(-30.6178 147.111 45.8651)" fill="#FFFCFC"/>
<rect x="147.604" y="45.5801" width="0.359806" height="0.106189" transform="rotate(-30.6178 147.604 45.5801)" fill="#FFFCFC"/>
<rect x="147.679" y="45.707" width="0.359806" height="0.206479" transform="rotate(-30.6178 147.679 45.707)" fill="#FFFCFC"/>
<rect x="148.024" y="45.4957" width="0.359806" height="0.584041" transform="rotate(-30.6178 148.024 45.4957)" fill="#FFFCFC"/>
<rect x="146.577" y="46.1807" width="0.469747" height="0.106189" transform="rotate(-30.6178 146.577 46.1807)" fill="#FFFCFC"/>
<rect x="145.924" y="46.5676" width="0.0899516" height="0.106189" transform="rotate(-30.6178 145.924 46.5676)" fill="#FFFCFC"/>
<rect x="146.485" y="46.9276" width="0.0899516" height="0.106189" transform="rotate(-30.6178 146.485 46.9276)" fill="#FFFCFC"/>
<rect x="147.919" y="46.1131" width="0.0899516" height="0.106189" transform="rotate(-30.6178 147.919 46.1131)" fill="#FFFCFC"/>
<rect x="147.966" y="45.9276" width="0.0899516" height="0.106189" transform="rotate(-30.6178 147.966 45.9276)" fill="#FFFCFC"/>
<rect x="148.151" y="45.9757" width="0.0899516" height="0.106189" transform="rotate(-30.6178 148.151 45.9757)" fill="#FFFCFC"/>
<rect x="148.035" y="46.0444" width="0.0899516" height="0.106189" transform="rotate(-30.6178 148.035 46.0444)" fill="#FFFCFC"/>
<rect x="147.577" y="46.2812" width="0.0899516" height="0.106189" transform="rotate(-30.6178 147.577 46.2812)" fill="#FFFCFC"/>
<rect x="146.382" y="46.9887" width="0.0899516" height="0.106189" transform="rotate(-30.6178 146.382 46.9887)" fill="#FFFCFC"/>
<rect x="147.461" y="46.3499" width="0.0899516" height="0.106189" transform="rotate(-30.6178 147.461 46.3499)" fill="#FFFCFC"/>
<rect x="146.077" y="46.8265" width="0.144922" height="0.106189" transform="rotate(-30.6178 146.077 46.8265)" fill="#FFFCFC"/>
<rect x="146.227" y="47.0804" width="0.144922" height="0.106189" transform="rotate(-30.6178 146.227 47.0804)" fill="#FFFCFC"/>
<rect x="147.694" y="46.2125" width="0.144922" height="0.106189" transform="rotate(-30.6178 147.694 46.2125)" fill="#FFFCFC"/>
<rect x="146.152" y="46.9534" width="0.144922" height="0.106189" transform="rotate(-30.6178 146.152 46.9534)" fill="#FFFCFC"/>
<rect y="113" width="40" height="12.766" fill="#CE5E1F"/>
<line y1="118.5" x2="40" y2="118.5" stroke="white"/>
<line y1="122.5" x2="40" y2="122.5" stroke="white"/>
<rect x="66" y="113" width="40" height="12.766" fill="#CE5E1F"/>
<line x1="66" y1="118.5" x2="106" y2="118.5" stroke="white"/>
<line x1="66" y1="122.5" x2="106" y2="122.5" stroke="white"/>
<rect x="33" y="98" width="40" height="12.766" fill="#CE5E1F"/>
<line x1="33" y1="103.5" x2="73" y2="103.5" stroke="white"/>
<line x1="33" y1="107.5" x2="73" y2="107.5" stroke="white"/>
<rect x="43" y="113" width="20" height="12.766" fill="#CE5E1F"/>
<line x1="43" y1="118.5" x2="63" y2="118.5" stroke="white"/>
<line x1="43" y1="122.5" x2="63" y2="122.5" stroke="white"/>
<rect x="10" y="98" width="20" height="12.766" fill="#CE5E1F"/>
<line x1="10" y1="103.5" x2="30" y2="103.5" stroke="white"/>
<line x1="10" y1="107.5" x2="30" y2="107.5" stroke="white"/>
<rect y="98" width="7" height="12.766" fill="#CE5E1F"/>
<line y1="103.5" x2="7" y2="103.5" stroke="white"/>
<line y1="107.5" x2="7" y2="107.5" stroke="white"/>
<rect x="99" y="98" width="10" height="12.766" fill="#CE5E1F"/>
<line x1="99" y1="103.5" x2="109" y2="103.5" stroke="white"/>
<line x1="99" y1="107.5" x2="109" y2="107.5" stroke="white"/>
<rect x="76" y="98" width="20" height="12.766" fill="#CE5E1F"/>
<line x1="76" y1="103.5" x2="96" y2="103.5" stroke="white"/>
<line x1="76" y1="107.5" x2="96" y2="107.5" stroke="white"/>
<rect x="109" y="113" width="40" height="12.766" fill="#CE5E1F"/>
<line x1="109" y1="118.5" x2="149" y2="118.5" stroke="white"/>
<line x1="109" y1="122.5" x2="149" y2="122.5" stroke="white"/>
<rect x="175" y="113" width="40" height="12.766" fill="#CE5E1F"/>
<line x1="175" y1="118.5" x2="215" y2="118.5" stroke="white"/>
<line x1="175" y1="122.5" x2="215" y2="122.5" stroke="white"/>
<rect x="142" y="98" width="40" height="12.766" fill="#CE5E1F"/>
<line x1="142" y1="103.5" x2="182" y2="103.5" stroke="white"/>
<line x1="142" y1="107.5" x2="182" y2="107.5" stroke="white"/>
<rect x="152" y="113" width="20" height="12.766" fill="#CE5E1F"/>
<line x1="152" y1="118.5" x2="172" y2="118.5" stroke="white"/>
<line x1="152" y1="122.5" x2="172" y2="122.5" stroke="white"/>
<rect x="119" y="98" width="20" height="12.766" fill="#CE5E1F"/>
<line x1="119" y1="103.5" x2="139" y2="103.5" stroke="white"/>
<line x1="119" y1="107.5" x2="139" y2="107.5" stroke="white"/>
<rect x="109" y="98" width="7" height="12.766" fill="#CE5E1F"/>
<line x1="109" y1="103.5" x2="116" y2="103.5" stroke="white"/>
<line x1="109" y1="107.5" x2="116" y2="107.5" stroke="white"/>
<rect x="208" y="98" width="7" height="12.766" fill="#CE5E1F"/>
<line x1="208" y1="103.5" x2="215" y2="103.5" stroke="white"/>
<line x1="208" y1="107.5" x2="215" y2="107.5" stroke="white"/>
<rect x="185" y="98" width="20" height="12.766" fill="#CE5E1F"/>
<line x1="185" y1="103.5" x2="205" y2="103.5" stroke="white"/>
<line x1="185" y1="107.5" x2="205" y2="107.5" stroke="white"/>
<path d="M14.4091 133.993L13.2045 134.334C13.1288 134.133 13.017 133.938 12.8693 133.749C12.7254 133.556 12.5284 133.397 12.2784 133.272C12.0284 133.147 11.7083 133.084 11.3182 133.084C10.7841 133.084 10.339 133.207 9.98295 133.453C9.63068 133.696 9.45455 134.005 9.45455 134.38C9.45455 134.713 9.57576 134.976 9.81818 135.169C10.0606 135.363 10.4394 135.524 10.9545 135.652L12.25 135.971C13.0303 136.16 13.6117 136.45 13.9943 136.84C14.3769 137.226 14.5682 137.724 14.5682 138.334C14.5682 138.834 14.4242 139.281 14.1364 139.675C13.8523 140.069 13.4545 140.38 12.9432 140.607C12.4318 140.834 11.8371 140.948 11.1591 140.948C10.2689 140.948 9.5322 140.755 8.94886 140.368C8.36553 139.982 7.99621 139.417 7.84091 138.675L9.11364 138.357C9.23485 138.827 9.46402 139.179 9.80114 139.414C10.142 139.649 10.5871 139.766 11.1364 139.766C11.7614 139.766 12.2576 139.633 12.625 139.368C12.9962 139.099 13.1818 138.777 13.1818 138.402C13.1818 138.099 13.0758 137.846 12.8636 137.641C12.6515 137.433 12.3258 137.277 11.8864 137.175L10.4318 136.834C9.63258 136.645 9.04545 136.351 8.67045 135.953C8.29924 135.552 8.11364 135.05 8.11364 134.448C8.11364 133.955 8.25189 133.52 8.52841 133.141C8.80871 132.762 9.18939 132.465 9.67045 132.249C10.1553 132.033 10.7045 131.925 11.3182 131.925C12.1818 131.925 12.8598 132.114 13.3523 132.493C13.8485 132.872 14.2008 133.372 14.4091 133.993ZM20.2457 140.948C19.4048 140.948 18.6795 140.762 18.0696 140.391C17.4635 140.016 16.9957 139.493 16.6662 138.823C16.3404 138.149 16.1776 137.364 16.1776 136.471C16.1776 135.577 16.3404 134.789 16.6662 134.107C16.9957 133.421 17.4541 132.887 18.0412 132.505C18.6321 132.118 19.3215 131.925 20.1094 131.925C20.5639 131.925 21.0128 132.001 21.456 132.152C21.8991 132.304 22.3026 132.55 22.6662 132.891C23.0298 133.228 23.3196 133.675 23.5355 134.232C23.7514 134.789 23.8594 135.474 23.8594 136.289V136.857H17.1321V135.698H22.4957C22.4957 135.205 22.3973 134.766 22.2003 134.38C22.0071 133.993 21.7306 133.688 21.3707 133.465C21.0147 133.241 20.5942 133.13 20.1094 133.13C19.5753 133.13 19.1132 133.262 18.723 133.527C18.3366 133.789 18.0393 134.13 17.831 134.55C17.6226 134.971 17.5185 135.421 17.5185 135.902V136.675C17.5185 137.334 17.6321 137.893 17.8594 138.351C18.0904 138.806 18.4105 139.152 18.8196 139.391C19.2287 139.626 19.7041 139.743 20.2457 139.743C20.598 139.743 20.9162 139.694 21.2003 139.596C21.4882 139.493 21.7363 139.342 21.9446 139.141C22.1529 138.936 22.3139 138.683 22.4276 138.38L23.723 138.743C23.5866 139.183 23.3575 139.569 23.0355 139.902C22.7135 140.232 22.3158 140.489 21.8423 140.675C21.3688 140.857 20.8366 140.948 20.2457 140.948ZM29.4446 140.948C28.6264 140.948 27.9219 140.755 27.331 140.368C26.7401 139.982 26.2855 139.45 25.9673 138.772C25.6491 138.094 25.4901 137.319 25.4901 136.448C25.4901 135.561 25.6529 134.779 25.9787 134.101C26.3082 133.419 26.7666 132.887 27.3537 132.505C27.9446 132.118 28.634 131.925 29.4219 131.925C30.0355 131.925 30.5885 132.039 31.081 132.266C31.5734 132.493 31.9768 132.811 32.2912 133.221C32.6056 133.63 32.8007 134.107 32.8764 134.652H31.5355C31.4332 134.255 31.206 133.902 30.8537 133.596C30.5052 133.285 30.0355 133.13 29.4446 133.13C28.9219 133.13 28.4635 133.266 28.0696 133.539C27.6795 133.808 27.3745 134.188 27.1548 134.681C26.9389 135.169 26.831 135.743 26.831 136.402C26.831 137.077 26.937 137.664 27.1491 138.164C27.3651 138.664 27.6681 139.052 28.0582 139.328C28.4522 139.605 28.9143 139.743 29.4446 139.743C29.7931 139.743 30.1094 139.683 30.3935 139.561C30.6776 139.44 30.9181 139.266 31.1151 139.039C31.312 138.811 31.4522 138.539 31.5355 138.221H32.8764C32.8007 138.736 32.6132 139.2 32.3139 139.613C32.0185 140.022 31.6264 140.347 31.1378 140.59C30.6529 140.828 30.0885 140.948 29.4446 140.948ZM38.6321 132.039V133.175H34.1094V132.039H38.6321ZM35.4276 129.948H36.7685V138.266C36.7685 138.645 36.8234 138.929 36.9332 139.118C37.0469 139.304 37.1908 139.429 37.3651 139.493C37.5431 139.554 37.7306 139.584 37.9276 139.584C38.0753 139.584 38.1965 139.577 38.2912 139.561C38.3859 139.542 38.4616 139.527 38.5185 139.516L38.7912 140.721C38.7003 140.755 38.5734 140.789 38.4105 140.823C38.2476 140.861 38.0412 140.88 37.7912 140.88C37.4124 140.88 37.0412 140.798 36.6776 140.635C36.3177 140.472 36.0185 140.224 35.7798 139.891C35.545 139.558 35.4276 139.137 35.4276 138.63V129.948ZM40.6491 140.766V132.039H41.9901V140.766H40.6491ZM41.331 130.584C41.0696 130.584 40.8442 130.495 40.6548 130.317C40.4692 130.139 40.3764 129.925 40.3764 129.675C40.3764 129.425 40.4692 129.211 40.6548 129.033C40.8442 128.855 41.0696 128.766 41.331 128.766C41.5923 128.766 41.8158 128.855 42.0014 129.033C42.1908 129.211 42.2855 129.425 42.2855 129.675C42.2855 129.925 42.1908 130.139 42.0014 130.317C41.8158 130.495 41.5923 130.584 41.331 130.584ZM47.9915 140.948C47.2036 140.948 46.5123 140.76 45.9176 140.385C45.3267 140.01 44.8646 139.486 44.5312 138.811C44.2017 138.137 44.0369 137.349 44.0369 136.448C44.0369 135.539 44.2017 134.745 44.5312 134.067C44.8646 133.389 45.3267 132.863 45.9176 132.488C46.5123 132.113 47.2036 131.925 47.9915 131.925C48.7794 131.925 49.4688 132.113 50.0597 132.488C50.6544 132.863 51.1165 133.389 51.446 134.067C51.7794 134.745 51.946 135.539 51.946 136.448C51.946 137.349 51.7794 138.137 51.446 138.811C51.1165 139.486 50.6544 140.01 50.0597 140.385C49.4688 140.76 48.7794 140.948 47.9915 140.948ZM47.9915 139.743C48.59 139.743 49.0824 139.59 49.4688 139.283C49.8551 138.976 50.1411 138.573 50.3267 138.073C50.5123 137.573 50.6051 137.031 50.6051 136.448C50.6051 135.864 50.5123 135.321 50.3267 134.817C50.1411 134.313 49.8551 133.906 49.4688 133.596C49.0824 133.285 48.59 133.13 47.9915 133.13C47.393 133.13 46.9006 133.285 46.5142 133.596C46.1278 133.906 45.8419 134.313 45.6562 134.817C45.4706 135.321 45.3778 135.864 45.3778 136.448C45.3778 137.031 45.4706 137.573 45.6562 138.073C45.8419 138.573 46.1278 138.976 46.5142 139.283C46.9006 139.59 47.393 139.743 47.9915 139.743ZM55.3338 135.516V140.766H53.9929V132.039H55.2884V133.402H55.402C55.6065 132.959 55.9171 132.603 56.3338 132.334C56.7505 132.061 57.2884 131.925 57.9474 131.925C58.5384 131.925 59.0554 132.046 59.4986 132.289C59.9418 132.527 60.2865 132.891 60.5327 133.38C60.7789 133.864 60.902 134.478 60.902 135.221V140.766H59.5611V135.311C59.5611 134.626 59.383 134.092 59.027 133.709C58.6709 133.323 58.1823 133.13 57.5611 133.13C57.133 133.13 56.7505 133.222 56.4134 133.408C56.08 133.594 55.8168 133.864 55.6236 134.221C55.4304 134.577 55.3338 135.008 55.3338 135.516ZM73.3523 137.198V132.039H74.6932V140.766H73.3523V139.289H73.2614C73.0568 139.732 72.7386 140.109 72.3068 140.419C71.875 140.726 71.3295 140.88 70.6705 140.88C70.125 140.88 69.6402 140.76 69.2159 140.522C68.7917 140.279 68.4583 139.916 68.2159 139.431C67.9735 138.942 67.8523 138.327 67.8523 137.584V132.039H69.1932V137.493C69.1932 138.13 69.3712 138.637 69.7273 139.016C70.0871 139.395 70.5455 139.584 71.1023 139.584C71.4356 139.584 71.7746 139.499 72.1193 139.328C72.4678 139.158 72.7595 138.897 72.9943 138.544C73.233 138.192 73.3523 137.743 73.3523 137.198ZM78.4901 135.516V140.766H77.1491V132.039H78.4446V133.402H78.5582C78.7628 132.959 79.0734 132.603 79.4901 132.334C79.9067 132.061 80.4446 131.925 81.1037 131.925C81.6946 131.925 82.2116 132.046 82.6548 132.289C83.098 132.527 83.4427 132.891 83.6889 133.38C83.9351 133.864 84.0582 134.478 84.0582 135.221V140.766H82.7173V135.311C82.7173 134.626 82.5393 134.092 82.1832 133.709C81.8272 133.323 81.3385 133.13 80.7173 133.13C80.2893 133.13 79.9067 133.222 79.5696 133.408C79.2363 133.594 78.973 133.864 78.7798 134.221C78.5866 134.577 78.4901 135.008 78.4901 135.516ZM89.804 140.948C89.0767 140.948 88.4347 140.764 87.8778 140.397C87.321 140.025 86.8854 139.503 86.571 138.828C86.2566 138.15 86.0994 137.349 86.0994 136.425C86.0994 135.508 86.2566 134.713 86.571 134.039C86.8854 133.364 87.3229 132.844 87.8835 132.476C88.4441 132.109 89.0919 131.925 89.8267 131.925C90.3949 131.925 90.8438 132.02 91.1733 132.209C91.5066 132.395 91.7604 132.607 91.9347 132.846C92.1127 133.08 92.2509 133.274 92.3494 133.425H92.4631V129.13H93.804V140.766H92.5085V139.425H92.3494C92.2509 139.584 92.1108 139.785 91.929 140.027C91.7472 140.266 91.4877 140.48 91.1506 140.669C90.8134 140.855 90.3646 140.948 89.804 140.948ZM89.9858 139.743C90.5237 139.743 90.9782 139.603 91.3494 139.323C91.7206 139.039 92.0028 138.647 92.196 138.147C92.3892 137.643 92.4858 137.061 92.4858 136.402C92.4858 135.751 92.3911 135.181 92.2017 134.692C92.0123 134.2 91.732 133.817 91.3608 133.544C90.9896 133.268 90.5313 133.13 89.9858 133.13C89.4176 133.13 88.9441 133.275 88.5653 133.567C88.1903 133.855 87.9081 134.247 87.7188 134.743C87.5331 135.236 87.4403 135.789 87.4403 136.402C87.4403 137.024 87.535 137.588 87.7244 138.096C87.9176 138.599 88.2017 139.001 88.5767 139.3C88.9555 139.596 89.4252 139.743 89.9858 139.743ZM100.105 140.948C99.2642 140.948 98.5388 140.762 97.929 140.391C97.3229 140.016 96.8551 139.493 96.5256 138.823C96.1998 138.149 96.0369 137.364 96.0369 136.471C96.0369 135.577 96.1998 134.789 96.5256 134.107C96.8551 133.421 97.3134 132.887 97.9006 132.505C98.4915 132.118 99.1809 131.925 99.9688 131.925C100.423 131.925 100.872 132.001 101.315 132.152C101.759 132.304 102.162 132.55 102.526 132.891C102.889 133.228 103.179 133.675 103.395 134.232C103.611 134.789 103.719 135.474 103.719 136.289V136.857H96.9915V135.698H102.355C102.355 135.205 102.257 134.766 102.06 134.38C101.866 133.993 101.59 133.688 101.23 133.465C100.874 133.241 100.454 133.13 99.9688 133.13C99.4347 133.13 98.9725 133.262 98.5824 133.527C98.196 133.789 97.8987 134.13 97.6903 134.55C97.482 134.971 97.3778 135.421 97.3778 135.902V136.675C97.3778 137.334 97.4915 137.893 97.7188 138.351C97.9498 138.806 98.2699 139.152 98.679 139.391C99.0881 139.626 99.5634 139.743 100.105 139.743C100.457 139.743 100.776 139.694 101.06 139.596C101.348 139.493 101.596 139.342 101.804 139.141C102.012 138.936 102.173 138.683 102.287 138.38L103.582 138.743C103.446 139.183 103.217 139.569 102.895 139.902C102.573 140.232 102.175 140.489 101.702 140.675C101.228 140.857 100.696 140.948 100.105 140.948ZM105.759 140.766V132.039H107.054V133.357H107.145C107.304 132.925 107.592 132.575 108.009 132.306C108.425 132.037 108.895 131.902 109.418 131.902C109.516 131.902 109.639 131.904 109.787 131.908C109.935 131.912 110.046 131.917 110.122 131.925V133.289C110.077 133.277 109.973 133.26 109.81 133.238C109.651 133.211 109.482 133.198 109.304 133.198C108.88 133.198 108.501 133.287 108.168 133.465C107.838 133.639 107.577 133.881 107.384 134.192C107.194 134.499 107.099 134.849 107.099 135.243V140.766H105.759ZM119.757 140.948C118.939 140.948 118.234 140.755 117.643 140.368C117.053 139.982 116.598 139.45 116.28 138.772C115.962 138.094 115.803 137.319 115.803 136.448C115.803 135.561 115.965 134.779 116.291 134.101C116.621 133.419 117.079 132.887 117.666 132.505C118.257 132.118 118.946 131.925 119.734 131.925C120.348 131.925 120.901 132.039 121.393 132.266C121.886 132.493 122.289 132.811 122.604 133.221C122.918 133.63 123.113 134.107 123.189 134.652H121.848C121.746 134.255 121.518 133.902 121.166 133.596C120.818 133.285 120.348 133.13 119.757 133.13C119.234 133.13 118.776 133.266 118.382 133.539C117.992 133.808 117.687 134.188 117.467 134.681C117.251 135.169 117.143 135.743 117.143 136.402C117.143 137.077 117.25 137.664 117.462 138.164C117.678 138.664 117.981 139.052 118.371 139.328C118.765 139.605 119.227 139.743 119.757 139.743C120.106 139.743 120.422 139.683 120.706 139.561C120.99 139.44 121.231 139.266 121.428 139.039C121.625 138.811 121.765 138.539 121.848 138.221H123.189C123.113 138.736 122.926 139.2 122.626 139.613C122.331 140.022 121.939 140.347 121.45 140.59C120.965 140.828 120.401 140.948 119.757 140.948ZM128.695 140.948C127.907 140.948 127.215 140.76 126.621 140.385C126.03 140.01 125.568 139.486 125.234 138.811C124.905 138.137 124.74 137.349 124.74 136.448C124.74 135.539 124.905 134.745 125.234 134.067C125.568 133.389 126.03 132.863 126.621 132.488C127.215 132.113 127.907 131.925 128.695 131.925C129.482 131.925 130.172 132.113 130.763 132.488C131.357 132.863 131.82 133.389 132.149 134.067C132.482 134.745 132.649 135.539 132.649 136.448C132.649 137.349 132.482 138.137 132.149 138.811C131.82 139.486 131.357 140.01 130.763 140.385C130.172 140.76 129.482 140.948 128.695 140.948ZM128.695 139.743C129.293 139.743 129.786 139.59 130.172 139.283C130.558 138.976 130.844 138.573 131.03 138.073C131.215 137.573 131.308 137.031 131.308 136.448C131.308 135.864 131.215 135.321 131.03 134.817C130.844 134.313 130.558 133.906 130.172 133.596C129.786 133.285 129.293 133.13 128.695 133.13C128.096 133.13 127.604 133.285 127.217 133.596C126.831 133.906 126.545 134.313 126.359 134.817C126.174 135.321 126.081 135.864 126.081 136.448C126.081 137.031 126.174 137.573 126.359 138.073C126.545 138.573 126.831 138.976 127.217 139.283C127.604 139.59 128.096 139.743 128.695 139.743ZM136.037 135.516V140.766H134.696V132.039H135.991V133.402H136.105C136.31 132.959 136.62 132.603 137.037 132.334C137.454 132.061 137.991 131.925 138.651 131.925C139.241 131.925 139.759 132.046 140.202 132.289C140.645 132.527 140.99 132.891 141.236 133.38C141.482 133.864 141.605 134.478 141.605 135.221V140.766H140.264V135.311C140.264 134.626 140.086 134.092 139.73 133.709C139.374 133.323 138.885 133.13 138.264 133.13C137.836 133.13 137.454 133.222 137.116 133.408C136.783 133.594 136.52 133.864 136.327 134.221C136.134 134.577 136.037 135.008 136.037 135.516ZM150.237 133.993L149.033 134.334C148.957 134.133 148.845 133.938 148.697 133.749C148.554 133.556 148.357 133.397 148.107 133.272C147.857 133.147 147.536 133.084 147.146 133.084C146.612 133.084 146.167 133.207 145.811 133.453C145.459 133.696 145.283 134.005 145.283 134.38C145.283 134.713 145.404 134.976 145.646 135.169C145.889 135.363 146.268 135.524 146.783 135.652L148.078 135.971C148.858 136.16 149.44 136.45 149.822 136.84C150.205 137.226 150.396 137.724 150.396 138.334C150.396 138.834 150.252 139.281 149.964 139.675C149.68 140.069 149.283 140.38 148.771 140.607C148.26 140.834 147.665 140.948 146.987 140.948C146.097 140.948 145.36 140.755 144.777 140.368C144.194 139.982 143.824 139.417 143.669 138.675L144.942 138.357C145.063 138.827 145.292 139.179 145.629 139.414C145.97 139.649 146.415 139.766 146.964 139.766C147.589 139.766 148.086 139.633 148.453 139.368C148.824 139.099 149.01 138.777 149.01 138.402C149.01 138.099 148.904 137.846 148.692 137.641C148.48 137.433 148.154 137.277 147.714 137.175L146.26 136.834C145.461 136.645 144.874 136.351 144.499 135.953C144.127 135.552 143.942 135.05 143.942 134.448C143.942 133.955 144.08 133.52 144.357 133.141C144.637 132.762 145.018 132.465 145.499 132.249C145.983 132.033 146.533 131.925 147.146 131.925C148.01 131.925 148.688 132.114 149.18 132.493C149.677 132.872 150.029 133.372 150.237 133.993ZM156.21 132.039V133.175H151.688V132.039H156.21ZM153.006 129.948H154.347V138.266C154.347 138.645 154.402 138.929 154.511 139.118C154.625 139.304 154.769 139.429 154.943 139.493C155.121 139.554 155.309 139.584 155.506 139.584C155.653 139.584 155.775 139.577 155.869 139.561C155.964 139.542 156.04 139.527 156.097 139.516L156.369 140.721C156.278 140.755 156.152 140.789 155.989 140.823C155.826 140.861 155.619 140.88 155.369 140.88C154.991 140.88 154.619 140.798 154.256 140.635C153.896 140.472 153.597 140.224 153.358 139.891C153.123 139.558 153.006 139.137 153.006 138.63V129.948ZM158.227 140.766V132.039H159.523V133.357H159.614C159.773 132.925 160.061 132.575 160.477 132.306C160.894 132.037 161.364 131.902 161.886 131.902C161.985 131.902 162.108 131.904 162.256 131.908C162.403 131.912 162.515 131.917 162.591 131.925V133.289C162.545 133.277 162.441 133.26 162.278 133.238C162.119 133.211 161.951 133.198 161.773 133.198C161.348 133.198 160.97 133.287 160.636 133.465C160.307 133.639 160.045 133.881 159.852 134.192C159.663 134.499 159.568 134.849 159.568 135.243V140.766H158.227ZM169.68 137.198V132.039H171.021V140.766H169.68V139.289H169.589C169.385 139.732 169.067 140.109 168.635 140.419C168.203 140.726 167.658 140.88 166.999 140.88C166.453 140.88 165.968 140.76 165.544 140.522C165.12 140.279 164.786 139.916 164.544 139.431C164.302 138.942 164.18 138.327 164.18 137.584V132.039H165.521V137.493C165.521 138.13 165.699 138.637 166.055 139.016C166.415 139.395 166.874 139.584 167.43 139.584C167.764 139.584 168.103 139.499 168.447 139.328C168.796 139.158 169.088 138.897 169.322 138.544C169.561 138.192 169.68 137.743 169.68 137.198ZM177.023 140.948C176.205 140.948 175.5 140.755 174.909 140.368C174.318 139.982 173.864 139.45 173.545 138.772C173.227 138.094 173.068 137.319 173.068 136.448C173.068 135.561 173.231 134.779 173.557 134.101C173.886 133.419 174.345 132.887 174.932 132.505C175.523 132.118 176.212 131.925 177 131.925C177.614 131.925 178.167 132.039 178.659 132.266C179.152 132.493 179.555 132.811 179.869 133.221C180.184 133.63 180.379 134.107 180.455 134.652H179.114C179.011 134.255 178.784 133.902 178.432 133.596C178.083 133.285 177.614 133.13 177.023 133.13C176.5 133.13 176.042 133.266 175.648 133.539C175.258 133.808 174.953 134.188 174.733 134.681C174.517 135.169 174.409 135.743 174.409 136.402C174.409 137.077 174.515 137.664 174.727 138.164C174.943 138.664 175.246 139.052 175.636 139.328C176.03 139.605 176.492 139.743 177.023 139.743C177.371 139.743 177.688 139.683 177.972 139.561C178.256 139.44 178.496 139.266 178.693 139.039C178.89 138.811 179.03 138.539 179.114 138.221H180.455C180.379 138.736 180.191 139.2 179.892 139.613C179.597 140.022 179.205 140.347 178.716 140.59C178.231 140.828 177.667 140.948 177.023 140.948ZM186.21 132.039V133.175H181.688V132.039H186.21ZM183.006 129.948H184.347V138.266C184.347 138.645 184.402 138.929 184.511 139.118C184.625 139.304 184.769 139.429 184.943 139.493C185.121 139.554 185.309 139.584 185.506 139.584C185.653 139.584 185.775 139.577 185.869 139.561C185.964 139.542 186.04 139.527 186.097 139.516L186.369 140.721C186.278 140.755 186.152 140.789 185.989 140.823C185.826 140.861 185.619 140.88 185.369 140.88C184.991 140.88 184.619 140.798 184.256 140.635C183.896 140.472 183.597 140.224 183.358 139.891C183.123 139.558 183.006 139.137 183.006 138.63V129.948ZM188.227 140.766V132.039H189.568V140.766H188.227ZM188.909 130.584C188.648 130.584 188.422 130.495 188.233 130.317C188.047 130.139 187.955 129.925 187.955 129.675C187.955 129.425 188.047 129.211 188.233 129.033C188.422 128.855 188.648 128.766 188.909 128.766C189.17 128.766 189.394 128.855 189.58 129.033C189.769 129.211 189.864 129.425 189.864 129.675C189.864 129.925 189.769 130.139 189.58 130.317C189.394 130.495 189.17 130.584 188.909 130.584ZM195.57 140.948C194.782 140.948 194.09 140.76 193.496 140.385C192.905 140.01 192.443 139.486 192.109 138.811C191.78 138.137 191.615 137.349 191.615 136.448C191.615 135.539 191.78 134.745 192.109 134.067C192.443 133.389 192.905 132.863 193.496 132.488C194.09 132.113 194.782 131.925 195.57 131.925C196.357 131.925 197.047 132.113 197.638 132.488C198.232 132.863 198.695 133.389 199.024 134.067C199.357 134.745 199.524 135.539 199.524 136.448C199.524 137.349 199.357 138.137 199.024 138.811C198.695 139.486 198.232 140.01 197.638 140.385C197.047 140.76 196.357 140.948 195.57 140.948ZM195.57 139.743C196.168 139.743 196.661 139.59 197.047 139.283C197.433 138.976 197.719 138.573 197.905 138.073C198.09 137.573 198.183 137.031 198.183 136.448C198.183 135.864 198.09 135.321 197.905 134.817C197.719 134.313 197.433 133.906 197.047 133.596C196.661 133.285 196.168 133.13 195.57 133.13C194.971 133.13 194.479 133.285 194.092 133.596C193.706 133.906 193.42 134.313 193.234 134.817C193.049 135.321 192.956 135.864 192.956 136.448C192.956 137.031 193.049 137.573 193.234 138.073C193.42 138.573 193.706 138.976 194.092 139.283C194.479 139.59 194.971 139.743 195.57 139.743ZM202.912 135.516V140.766H201.571V132.039H202.866V133.402H202.98C203.185 132.959 203.495 132.603 203.912 132.334C204.329 132.061 204.866 131.925 205.526 131.925C206.116 131.925 206.634 132.046 207.077 132.289C207.52 132.527 207.865 132.891 208.111 133.38C208.357 133.864 208.48 134.478 208.48 135.221V140.766H207.139V135.311C207.139 134.626 206.961 134.092 206.605 133.709C206.249 133.323 205.76 133.13 205.139 133.13C204.711 133.13 204.329 133.222 203.991 133.408C203.658 133.594 203.395 133.864 203.202 134.221C203.009 134.577 202.912 135.008 202.912 135.516Z" fill="url(#paint1_linear_162_10)"/>
<defs>
<linearGradient id="paint0_linear_162_10" x1="151.733" y1="50.4363" x2="115.875" y2="94.6995" gradientUnits="userSpaceOnUse">
<stop stop-color="#17053E"/>
<stop offset="0.9999" stop-color="#1B1A1F"/>
<stop offset="1" stop-color="#5536D1" stop-opacity="0"/>
</linearGradient>
<linearGradient id="paint1_linear_162_10" x1="115.5" y1="128.766" x2="102" y2="144.766" gradientUnits="userSpaceOnUse">
<stop stop-color="#A860B4"/>
<stop offset="1" stop-color="#A209BB"/>
</linearGradient>
</defs>
</svg>
