<svg width="215" height="145" viewBox="0 0 215 145" fill="none" xmlns="http://www.w3.org/2000/svg">
<path d="M110.888 26.0707C109.851 22.4586 110.394 18.4616 112.405 14.901C114.417 11.3404 117.744 8.48669 121.703 6.92624C125.662 5.36579 129.952 5.21713 133.692 6.51081C137.432 7.80448 140.338 10.4422 141.812 13.8821C143.286 17.3219 143.217 21.3025 141.618 25.0059C140.02 28.7094 137.014 31.8543 133.217 33.7946C129.421 35.7349 125.123 36.3231 121.207 35.4384C117.29 34.5536 114.053 32.2632 112.159 29.0376L126.621 20.739L110.888 26.0707Z" fill="#873737" fill-opacity="0.85"/>
<rect x="116" y="45.7368" width="39.5408" height="58.1551" rx="11" transform="rotate(-27.6949 116 45.7368)" fill="url(#paint0_linear_158_9)"/>
<rect x="102" y="57.5159" width="26.8845" height="9" rx="2" transform="rotate(-21.7081 102 57.5159)" fill="#873737"/>
<path d="M149.848 49.8705L144.316 45.3062L145.539 42.5888L148.442 42.8647L149.848 49.8705Z" fill="#D12AD4" stroke="#06FA85" stroke-width="0.3"/>
<path d="M150.753 42.7139L143.942 39.8812L143.148 47.2149" stroke="#FAFDFF" stroke-width="0.3"/>
<path d="M143.143 47.2073L149.954 50.0401L150.749 42.7063" stroke="#FAFDFF" stroke-width="0.3"/>
<path d="M152.838 43.4797L147.001 38.7382L144.131 45.3495" stroke="#FAFDFF" stroke-width="0.3"/>
<path d="M144.128 45.3412L149.965 50.0826L153.058 46.5242L152.836 43.4713" stroke="#FAFDFF" stroke-width="0.3"/>
<path d="M148.549 42.6967L141.364 42.1148L142.797 49.4969" stroke="#FAFDFF" stroke-width="0.3"/>
<path d="M142.791 49.491L145.558 51.2366L149.975 50.0729L148.542 42.6907" stroke="#FAFDFF" stroke-width="0.3"/>
<rect x="145.856" y="45.8918" width="2.7785" height="0.837715" transform="rotate(-30.6178 145.856 45.8918)" fill="#27D4DF"/>
<path d="M145.112 45.4341L148.251 43.5762L148.187 44.3751L145.796 45.7903L145.112 45.4341Z" fill="white"/>
<rect x="146.09" y="45.8356" width="0.469747" height="0.106189" transform="rotate(-30.6178 146.09 45.8356)" fill="#FFFCFC"/>
<rect x="146.002" y="46.0593" width="1.849" height="0.106189" transform="rotate(-30.6178 146.002 46.0593)" fill="#FFFCFC"/>
<rect x="146.588" y="46.2262" width="0.979473" height="0.106189" transform="rotate(-30.6178 146.588 46.2262)" fill="#FFFCFC"/>
<path d="M146.24 46.0895L147.668 45.2445L147.734 45.4248L147.606 45.535L147.02 45.8815L146.491 46.1947L146.356 46.2405L146.24 46.0895Z" fill="#FFFCFC"/>
<rect x="147.111" y="45.2248" width="0.469747" height="0.106189" transform="rotate(-30.6178 147.111 45.2248)" fill="#FFFCFC"/>
<rect x="147.604" y="44.9397" width="0.359806" height="0.106189" transform="rotate(-30.6178 147.604 44.9397)" fill="#FFFCFC"/>
<rect x="147.679" y="45.0667" width="0.359806" height="0.206479" transform="rotate(-30.6178 147.679 45.0667)" fill="#FFFCFC"/>
<rect x="148.024" y="44.8554" width="0.359806" height="0.584041" transform="rotate(-30.6178 148.024 44.8554)" fill="#FFFCFC"/>
<rect x="146.577" y="45.5404" width="0.469747" height="0.106189" transform="rotate(-30.6178 146.577 45.5404)" fill="#FFFCFC"/>
<rect x="145.924" y="45.9273" width="0.0899516" height="0.106189" transform="rotate(-30.6178 145.924 45.9273)" fill="#FFFCFC"/>
<rect x="146.485" y="46.2873" width="0.0899516" height="0.106189" transform="rotate(-30.6178 146.485 46.2873)" fill="#FFFCFC"/>
<rect x="147.919" y="45.4728" width="0.0899516" height="0.106189" transform="rotate(-30.6178 147.919 45.4728)" fill="#FFFCFC"/>
<rect x="147.966" y="45.2873" width="0.0899516" height="0.106189" transform="rotate(-30.6178 147.966 45.2873)" fill="#FFFCFC"/>
<rect x="148.151" y="45.3354" width="0.0899516" height="0.106189" transform="rotate(-30.6178 148.151 45.3354)" fill="#FFFCFC"/>
<rect x="148.035" y="45.4041" width="0.0899516" height="0.106189" transform="rotate(-30.6178 148.035 45.4041)" fill="#FFFCFC"/>
<rect x="147.577" y="45.6409" width="0.0899516" height="0.106189" transform="rotate(-30.6178 147.577 45.6409)" fill="#FFFCFC"/>
<rect x="146.382" y="46.3484" width="0.0899516" height="0.106189" transform="rotate(-30.6178 146.382 46.3484)" fill="#FFFCFC"/>
<rect x="147.461" y="45.7096" width="0.0899516" height="0.106189" transform="rotate(-30.6178 147.461 45.7096)" fill="#FFFCFC"/>
<rect x="146.077" y="46.1862" width="0.144922" height="0.106189" transform="rotate(-30.6178 146.077 46.1862)" fill="#FFFCFC"/>
<rect x="146.227" y="46.44" width="0.144922" height="0.106189" transform="rotate(-30.6178 146.227 46.44)" fill="#FFFCFC"/>
<rect x="147.693" y="45.5721" width="0.144922" height="0.106189" transform="rotate(-30.6178 147.693 45.5721)" fill="#FFFCFC"/>
<rect x="146.152" y="46.3131" width="0.144922" height="0.106189" transform="rotate(-30.6178 146.152 46.3131)" fill="#FFFCFC"/>
<rect y="112.36" width="40" height="12.766" fill="#CE5E1F"/>
<line y1="117.86" x2="40" y2="117.86" stroke="white"/>
<line y1="121.86" x2="40" y2="121.86" stroke="white"/>
<rect x="66" y="112.36" width="40" height="12.766" fill="#CE5E1F"/>
<line x1="66" y1="117.86" x2="106" y2="117.86" stroke="white"/>
<line x1="66" y1="121.86" x2="106" y2="121.86" stroke="white"/>
<rect x="33" y="97.3597" width="40" height="12.766" fill="#CE5E1F"/>
<line x1="33" y1="102.86" x2="73" y2="102.86" stroke="white"/>
<line x1="33" y1="106.86" x2="73" y2="106.86" stroke="white"/>
<rect x="43" y="112.36" width="20" height="12.766" fill="#CE5E1F"/>
<line x1="43" y1="117.86" x2="63" y2="117.86" stroke="white"/>
<line x1="43" y1="121.86" x2="63" y2="121.86" stroke="white"/>
<rect x="10" y="97.3597" width="20" height="12.766" fill="#CE5E1F"/>
<line x1="10" y1="102.86" x2="30" y2="102.86" stroke="white"/>
<line x1="10" y1="106.86" x2="30" y2="106.86" stroke="white"/>
<rect y="97.3597" width="7" height="12.766" fill="#CE5E1F"/>
<line y1="102.86" x2="7" y2="102.86" stroke="white"/>
<line y1="106.86" x2="7" y2="106.86" stroke="white"/>
<rect x="99" y="97.3597" width="10" height="12.766" fill="#CE5E1F"/>
<line x1="99" y1="102.86" x2="109" y2="102.86" stroke="white"/>
<line x1="99" y1="106.86" x2="109" y2="106.86" stroke="white"/>
<rect x="76" y="97.3597" width="20" height="12.766" fill="#CE5E1F"/>
<line x1="76" y1="102.86" x2="96" y2="102.86" stroke="white"/>
<line x1="76" y1="106.86" x2="96" y2="106.86" stroke="white"/>
<rect x="109" y="112.36" width="40" height="12.766" fill="#CE5E1F"/>
<line x1="109" y1="117.86" x2="149" y2="117.86" stroke="white"/>
<line x1="109" y1="121.86" x2="149" y2="121.86" stroke="white"/>
<rect x="175" y="112.36" width="40" height="12.766" fill="#CE5E1F"/>
<line x1="175" y1="117.86" x2="215" y2="117.86" stroke="white"/>
<line x1="175" y1="121.86" x2="215" y2="121.86" stroke="white"/>
<rect x="142" y="97.3597" width="40" height="12.766" fill="#CE5E1F"/>
<line x1="142" y1="102.86" x2="182" y2="102.86" stroke="white"/>
<line x1="142" y1="106.86" x2="182" y2="106.86" stroke="white"/>
<rect x="152" y="112.36" width="20" height="12.766" fill="#CE5E1F"/>
<line x1="152" y1="117.86" x2="172" y2="117.86" stroke="white"/>
<line x1="152" y1="121.86" x2="172" y2="121.86" stroke="white"/>
<rect x="119" y="97.3597" width="20" height="12.766" fill="#CE5E1F"/>
<line x1="119" y1="102.86" x2="139" y2="102.86" stroke="white"/>
<line x1="119" y1="106.86" x2="139" y2="106.86" stroke="white"/>
<rect x="109" y="97.3597" width="7" height="12.766" fill="#CE5E1F"/>
<line x1="109" y1="102.86" x2="116" y2="102.86" stroke="white"/>
<line x1="109" y1="106.86" x2="116" y2="106.86" stroke="white"/>
<rect x="208" y="97.3597" width="7" height="12.766" fill="#CE5E1F"/>
<line x1="208" y1="102.86" x2="215" y2="102.86" stroke="white"/>
<line x1="208" y1="106.86" x2="215" y2="106.86" stroke="white"/>
<rect x="185" y="97.3597" width="20" height="12.766" fill="#CE5E1F"/>
<line x1="185" y1="102.86" x2="205" y2="102.86" stroke="white"/>
<line x1="185" y1="106.86" x2="205" y2="106.86" stroke="white"/>
<path d="M14.4091 133.353L13.2045 133.694C13.1288 133.493 13.017 133.298 12.8693 133.109C12.7254 132.915 12.5284 132.756 12.2784 132.631C12.0284 132.506 11.7083 132.444 11.3182 132.444C10.7841 132.444 10.339 132.567 9.98295 132.813C9.63068 133.056 9.45455 133.364 9.45455 133.739C9.45455 134.073 9.57576 134.336 9.81818 134.529C10.0606 134.722 10.4394 134.883 10.9545 135.012L12.25 135.33C13.0303 135.52 13.6117 135.809 13.9943 136.199C14.3769 136.586 14.5682 137.084 14.5682 137.694C14.5682 138.194 14.4242 138.641 14.1364 139.035C13.8523 139.429 13.4545 139.739 12.9432 139.967C12.4318 140.194 11.8371 140.307 11.1591 140.307C10.2689 140.307 9.5322 140.114 8.94886 139.728C8.36553 139.342 7.99621 138.777 7.84091 138.035L9.11364 137.717C9.23485 138.186 9.46402 138.539 9.80114 138.773C10.142 139.008 10.5871 139.126 11.1364 139.126C11.7614 139.126 12.2576 138.993 12.625 138.728C12.9962 138.459 13.1818 138.137 13.1818 137.762C13.1818 137.459 13.0758 137.205 12.8636 137.001C12.6515 136.792 12.3258 136.637 11.8864 136.535L10.4318 136.194C9.63258 136.004 9.04545 135.711 8.67045 135.313C8.29924 134.912 8.11364 134.41 8.11364 133.807C8.11364 133.315 8.25189 132.879 8.52841 132.501C8.80871 132.122 9.18939 131.824 9.67045 131.609C10.1553 131.393 10.7045 131.285 11.3182 131.285C12.1818 131.285 12.8598 131.474 13.3523 131.853C13.8485 132.232 14.2008 132.732 14.4091 133.353ZM20.2457 140.307C19.4048 140.307 18.6795 140.122 18.0696 139.751C17.4635 139.376 16.9957 138.853 16.6662 138.182C16.3404 137.508 16.1776 136.724 16.1776 135.83C16.1776 134.936 16.3404 134.148 16.6662 133.467C16.9957 132.781 17.4541 132.247 18.0412 131.864C18.6321 131.478 19.3215 131.285 20.1094 131.285C20.5639 131.285 21.0128 131.36 21.456 131.512C21.8991 131.664 22.3026 131.91 22.6662 132.251C23.0298 132.588 23.3196 133.035 23.5355 133.592C23.7514 134.148 23.8594 134.834 23.8594 135.648V136.217H17.1321V135.057H22.4957C22.4957 134.565 22.3973 134.126 22.2003 133.739C22.0071 133.353 21.7306 133.048 21.3707 132.824C21.0147 132.601 20.5942 132.489 20.1094 132.489C19.5753 132.489 19.1132 132.622 18.723 132.887C18.3366 133.148 18.0393 133.489 17.831 133.91C17.6226 134.33 17.5185 134.781 17.5185 135.262V136.035C17.5185 136.694 17.6321 137.253 17.8594 137.711C18.0904 138.165 18.4105 138.512 18.8196 138.751C19.2287 138.985 19.7041 139.103 20.2457 139.103C20.598 139.103 20.9162 139.054 21.2003 138.955C21.4882 138.853 21.7363 138.701 21.9446 138.501C22.1529 138.296 22.3139 138.042 22.4276 137.739L23.723 138.103C23.5866 138.542 23.3575 138.929 23.0355 139.262C22.7135 139.592 22.3158 139.849 21.8423 140.035C21.3688 140.217 20.8366 140.307 20.2457 140.307ZM29.4446 140.307C28.6264 140.307 27.9219 140.114 27.331 139.728C26.7401 139.342 26.2855 138.809 25.9673 138.131C25.6491 137.453 25.4901 136.679 25.4901 135.807C25.4901 134.921 25.6529 134.139 25.9787 133.461C26.3082 132.779 26.7666 132.247 27.3537 131.864C27.9446 131.478 28.634 131.285 29.4219 131.285C30.0355 131.285 30.5885 131.398 31.081 131.626C31.5734 131.853 31.9768 132.171 32.2912 132.58C32.6056 132.989 32.8007 133.467 32.8764 134.012H31.5355C31.4332 133.614 31.206 133.262 30.8537 132.955C30.5052 132.645 30.0355 132.489 29.4446 132.489C28.9219 132.489 28.4635 132.626 28.0696 132.898C27.6795 133.167 27.3745 133.548 27.1548 134.04C26.9389 134.529 26.831 135.103 26.831 135.762C26.831 136.436 26.937 137.023 27.1491 137.523C27.3651 138.023 27.6681 138.412 28.0582 138.688C28.4522 138.965 28.9143 139.103 29.4446 139.103C29.7931 139.103 30.1094 139.042 30.3935 138.921C30.6776 138.8 30.9181 138.626 31.1151 138.398C31.312 138.171 31.4522 137.898 31.5355 137.58H32.8764C32.8007 138.095 32.6132 138.559 32.3139 138.972C32.0185 139.381 31.6264 139.707 31.1378 139.949C30.6529 140.188 30.0885 140.307 29.4446 140.307ZM38.6321 131.398V132.535H34.1094V131.398H38.6321ZM35.4276 129.307H36.7685V137.626C36.7685 138.004 36.8234 138.289 36.9332 138.478C37.0469 138.664 37.1908 138.789 37.3651 138.853C37.5431 138.914 37.7306 138.944 37.9276 138.944C38.0753 138.944 38.1965 138.936 38.2912 138.921C38.3859 138.902 38.4616 138.887 38.5185 138.876L38.7912 140.08C38.7003 140.114 38.5734 140.148 38.4105 140.182C38.2476 140.22 38.0412 140.239 37.7912 140.239C37.4124 140.239 37.0412 140.158 36.6776 139.995C36.3177 139.832 36.0185 139.584 35.7798 139.251C35.545 138.917 35.4276 138.497 35.4276 137.989V129.307ZM40.6491 140.126V131.398H41.9901V140.126H40.6491ZM41.331 129.944C41.0696 129.944 40.8442 129.855 40.6548 129.677C40.4692 129.499 40.3764 129.285 40.3764 129.035C40.3764 128.785 40.4692 128.571 40.6548 128.393C40.8442 128.215 41.0696 128.126 41.331 128.126C41.5923 128.126 41.8158 128.215 42.0014 128.393C42.1908 128.571 42.2855 128.785 42.2855 129.035C42.2855 129.285 42.1908 129.499 42.0014 129.677C41.8158 129.855 41.5923 129.944 41.331 129.944ZM47.9915 140.307C47.2036 140.307 46.5123 140.12 45.9176 139.745C45.3267 139.37 44.8646 138.845 44.5312 138.171C44.2017 137.497 44.0369 136.709 44.0369 135.807C44.0369 134.898 44.2017 134.105 44.5312 133.427C44.8646 132.749 45.3267 132.222 45.9176 131.847C46.5123 131.472 47.2036 131.285 47.9915 131.285C48.7794 131.285 49.4688 131.472 50.0597 131.847C50.6544 132.222 51.1165 132.749 51.446 133.427C51.7794 134.105 51.946 134.898 51.946 135.807C51.946 136.709 51.7794 137.497 51.446 138.171C51.1165 138.845 50.6544 139.37 50.0597 139.745C49.4688 140.12 48.7794 140.307 47.9915 140.307ZM47.9915 139.103C48.59 139.103 49.0824 138.949 49.4688 138.643C49.8551 138.336 50.1411 137.932 50.3267 137.432C50.5123 136.932 50.6051 136.391 50.6051 135.807C50.6051 135.224 50.5123 134.681 50.3267 134.177C50.1411 133.673 49.8551 133.266 49.4688 132.955C49.0824 132.645 48.59 132.489 47.9915 132.489C47.393 132.489 46.9006 132.645 46.5142 132.955C46.1278 133.266 45.8419 133.673 45.6562 134.177C45.4706 134.681 45.3778 135.224 45.3778 135.807C45.3778 136.391 45.4706 136.932 45.6562 137.432C45.8419 137.932 46.1278 138.336 46.5142 138.643C46.9006 138.949 47.393 139.103 47.9915 139.103ZM55.3338 134.876V140.126H53.9929V131.398H55.2884V132.762H55.402C55.6065 132.319 55.9171 131.963 56.3338 131.694C56.7505 131.421 57.2884 131.285 57.9474 131.285C58.5384 131.285 59.0554 131.406 59.4986 131.648C59.9418 131.887 60.2865 132.251 60.5327 132.739C60.7789 133.224 60.902 133.838 60.902 134.58V140.126H59.5611V134.671C59.5611 133.985 59.383 133.451 59.027 133.069C58.6709 132.682 58.1823 132.489 57.5611 132.489C57.133 132.489 56.7505 132.582 56.4134 132.768C56.08 132.953 55.8168 133.224 55.6236 133.58C55.4304 133.936 55.3338 134.368 55.3338 134.876ZM73.3523 136.557V131.398H74.6932V140.126H73.3523V138.648H73.2614C73.0568 139.092 72.7386 139.468 72.3068 139.779C71.875 140.086 71.3295 140.239 70.6705 140.239C70.125 140.239 69.6402 140.12 69.2159 139.881C68.7917 139.639 68.4583 139.275 68.2159 138.79C67.9735 138.302 67.8523 137.686 67.8523 136.944V131.398H69.1932V136.853C69.1932 137.489 69.3712 137.997 69.7273 138.376C70.0871 138.754 70.5455 138.944 71.1023 138.944C71.4356 138.944 71.7746 138.859 72.1193 138.688C72.4678 138.518 72.7595 138.256 72.9943 137.904C73.233 137.552 73.3523 137.103 73.3523 136.557ZM78.4901 134.876V140.126H77.1491V131.398H78.4446V132.762H78.5582C78.7628 132.319 79.0734 131.963 79.4901 131.694C79.9067 131.421 80.4446 131.285 81.1037 131.285C81.6946 131.285 82.2116 131.406 82.6548 131.648C83.098 131.887 83.4427 132.251 83.6889 132.739C83.9351 133.224 84.0582 133.838 84.0582 134.58V140.126H82.7173V134.671C82.7173 133.985 82.5393 133.451 82.1832 133.069C81.8272 132.682 81.3385 132.489 80.7173 132.489C80.2893 132.489 79.9067 132.582 79.5696 132.768C79.2363 132.953 78.973 133.224 78.7798 133.58C78.5866 133.936 78.4901 134.368 78.4901 134.876ZM89.804 140.307C89.0767 140.307 88.4347 140.124 87.8778 139.756C87.321 139.385 86.8854 138.862 86.571 138.188C86.2566 137.51 86.0994 136.709 86.0994 135.785C86.0994 134.868 86.2566 134.073 86.571 133.398C86.8854 132.724 87.3229 132.203 87.8835 131.836C88.4441 131.468 89.0919 131.285 89.8267 131.285C90.3949 131.285 90.8438 131.379 91.1733 131.569C91.5066 131.754 91.7604 131.967 91.9347 132.205C92.1127 132.44 92.2509 132.633 92.3494 132.785H92.4631V128.489H93.804V140.126H92.5085V138.785H92.3494C92.2509 138.944 92.1108 139.145 91.929 139.387C91.7472 139.626 91.4877 139.84 91.1506 140.029C90.8134 140.215 90.3646 140.307 89.804 140.307ZM89.9858 139.103C90.5237 139.103 90.9782 138.963 91.3494 138.682C91.7206 138.398 92.0028 138.006 92.196 137.506C92.3892 137.003 92.4858 136.421 92.4858 135.762C92.4858 135.11 92.3911 134.54 92.2017 134.052C92.0123 133.559 91.732 133.177 91.3608 132.904C90.9896 132.628 90.5313 132.489 89.9858 132.489C89.4176 132.489 88.9441 132.635 88.5653 132.927C88.1903 133.215 87.9081 133.607 87.7188 134.103C87.5331 134.595 87.4403 135.148 87.4403 135.762C87.4403 136.383 87.535 136.948 87.7244 137.455C87.9176 137.959 88.2017 138.36 88.5767 138.66C88.9555 138.955 89.4252 139.103 89.9858 139.103ZM100.105 140.307C99.2642 140.307 98.5388 140.122 97.929 139.751C97.3229 139.376 96.8551 138.853 96.5256 138.182C96.1998 137.508 96.0369 136.724 96.0369 135.83C96.0369 134.936 96.1998 134.148 96.5256 133.467C96.8551 132.781 97.3134 132.247 97.9006 131.864C98.4915 131.478 99.1809 131.285 99.9688 131.285C100.423 131.285 100.872 131.36 101.315 131.512C101.759 131.664 102.162 131.91 102.526 132.251C102.889 132.588 103.179 133.035 103.395 133.592C103.611 134.148 103.719 134.834 103.719 135.648V136.217H96.9915V135.057H102.355C102.355 134.565 102.257 134.126 102.06 133.739C101.866 133.353 101.59 133.048 101.23 132.824C100.874 132.601 100.454 132.489 99.9688 132.489C99.4347 132.489 98.9725 132.622 98.5824 132.887C98.196 133.148 97.8987 133.489 97.6903 133.91C97.482 134.33 97.3778 134.781 97.3778 135.262V136.035C97.3778 136.694 97.4915 137.253 97.7188 137.711C97.9498 138.165 98.2699 138.512 98.679 138.751C99.0881 138.985 99.5634 139.103 100.105 139.103C100.457 139.103 100.776 139.054 101.06 138.955C101.348 138.853 101.596 138.701 101.804 138.501C102.012 138.296 102.173 138.042 102.287 137.739L103.582 138.103C103.446 138.542 103.217 138.929 102.895 139.262C102.573 139.592 102.175 139.849 101.702 140.035C101.228 140.217 100.696 140.307 100.105 140.307ZM105.759 140.126V131.398H107.054V132.717H107.145C107.304 132.285 107.592 131.934 108.009 131.665C108.425 131.396 108.895 131.262 109.418 131.262C109.516 131.262 109.639 131.264 109.787 131.268C109.935 131.271 110.046 131.277 110.122 131.285V132.648C110.077 132.637 109.973 132.62 109.81 132.597C109.651 132.571 109.482 132.557 109.304 132.557C108.88 132.557 108.501 132.646 108.168 132.824C107.838 132.999 107.577 133.241 107.384 133.552C107.194 133.859 107.099 134.209 107.099 134.603V140.126H105.759ZM119.757 140.307C118.939 140.307 118.234 140.114 117.643 139.728C117.053 139.342 116.598 138.809 116.28 138.131C115.962 137.453 115.803 136.679 115.803 135.807C115.803 134.921 115.965 134.139 116.291 133.461C116.621 132.779 117.079 132.247 117.666 131.864C118.257 131.478 118.946 131.285 119.734 131.285C120.348 131.285 120.901 131.398 121.393 131.626C121.886 131.853 122.289 132.171 122.604 132.58C122.918 132.989 123.113 133.467 123.189 134.012H121.848C121.746 133.614 121.518 133.262 121.166 132.955C120.818 132.645 120.348 132.489 119.757 132.489C119.234 132.489 118.776 132.626 118.382 132.898C117.992 133.167 117.687 133.548 117.467 134.04C117.251 134.529 117.143 135.103 117.143 135.762C117.143 136.436 117.25 137.023 117.462 137.523C117.678 138.023 117.981 138.412 118.371 138.688C118.765 138.965 119.227 139.103 119.757 139.103C120.106 139.103 120.422 139.042 120.706 138.921C120.99 138.8 121.231 138.626 121.428 138.398C121.625 138.171 121.765 137.898 121.848 137.58H123.189C123.113 138.095 122.926 138.559 122.626 138.972C122.331 139.381 121.939 139.707 121.45 139.949C120.965 140.188 120.401 140.307 119.757 140.307ZM128.695 140.307C127.907 140.307 127.215 140.12 126.621 139.745C126.03 139.37 125.568 138.845 125.234 138.171C124.905 137.497 124.74 136.709 124.74 135.807C124.74 134.898 124.905 134.105 125.234 133.427C125.568 132.749 126.03 132.222 126.621 131.847C127.215 131.472 127.907 131.285 128.695 131.285C129.482 131.285 130.172 131.472 130.763 131.847C131.357 132.222 131.82 132.749 132.149 133.427C132.482 134.105 132.649 134.898 132.649 135.807C132.649 136.709 132.482 137.497 132.149 138.171C131.82 138.845 131.357 139.37 130.763 139.745C130.172 140.12 129.482 140.307 128.695 140.307ZM128.695 139.103C129.293 139.103 129.786 138.949 130.172 138.643C130.558 138.336 130.844 137.932 131.03 137.432C131.215 136.932 131.308 136.391 131.308 135.807C131.308 135.224 131.215 134.681 131.03 134.177C130.844 133.673 130.558 133.266 130.172 132.955C129.786 132.645 129.293 132.489 128.695 132.489C128.096 132.489 127.604 132.645 127.217 132.955C126.831 133.266 126.545 133.673 126.359 134.177C126.174 134.681 126.081 135.224 126.081 135.807C126.081 136.391 126.174 136.932 126.359 137.432C126.545 137.932 126.831 138.336 127.217 138.643C127.604 138.949 128.096 139.103 128.695 139.103ZM136.037 134.876V140.126H134.696V131.398H135.991V132.762H136.105C136.31 132.319 136.62 131.963 137.037 131.694C137.454 131.421 137.991 131.285 138.651 131.285C139.241 131.285 139.759 131.406 140.202 131.648C140.645 131.887 140.99 132.251 141.236 132.739C141.482 133.224 141.605 133.838 141.605 134.58V140.126H140.264V134.671C140.264 133.985 140.086 133.451 139.73 133.069C139.374 132.682 138.885 132.489 138.264 132.489C137.836 132.489 137.454 132.582 137.116 132.768C136.783 132.953 136.52 133.224 136.327 133.58C136.134 133.936 136.037 134.368 136.037 134.876ZM150.237 133.353L149.033 133.694C148.957 133.493 148.845 133.298 148.697 133.109C148.554 132.915 148.357 132.756 148.107 132.631C147.857 132.506 147.536 132.444 147.146 132.444C146.612 132.444 146.167 132.567 145.811 132.813C145.459 133.056 145.283 133.364 145.283 133.739C145.283 134.073 145.404 134.336 145.646 134.529C145.889 134.722 146.268 134.883 146.783 135.012L148.078 135.33C148.858 135.52 149.44 135.809 149.822 136.199C150.205 136.586 150.396 137.084 150.396 137.694C150.396 138.194 150.252 138.641 149.964 139.035C149.68 139.429 149.283 139.739 148.771 139.967C148.26 140.194 147.665 140.307 146.987 140.307C146.097 140.307 145.36 140.114 144.777 139.728C144.194 139.342 143.824 138.777 143.669 138.035L144.942 137.717C145.063 138.186 145.292 138.539 145.629 138.773C145.97 139.008 146.415 139.126 146.964 139.126C147.589 139.126 148.086 138.993 148.453 138.728C148.824 138.459 149.01 138.137 149.01 137.762C149.01 137.459 148.904 137.205 148.692 137.001C148.48 136.792 148.154 136.637 147.714 136.535L146.26 136.194C145.461 136.004 144.874 135.711 144.499 135.313C144.127 134.912 143.942 134.41 143.942 133.807C143.942 133.315 144.08 132.879 144.357 132.501C144.637 132.122 145.018 131.824 145.499 131.609C145.983 131.393 146.533 131.285 147.146 131.285C148.01 131.285 148.688 131.474 149.18 131.853C149.677 132.232 150.029 132.732 150.237 133.353ZM156.21 131.398V132.535H151.688V131.398H156.21ZM153.006 129.307H154.347V137.626C154.347 138.004 154.402 138.289 154.511 138.478C154.625 138.664 154.769 138.789 154.943 138.853C155.121 138.914 155.309 138.944 155.506 138.944C155.653 138.944 155.775 138.936 155.869 138.921C155.964 138.902 156.04 138.887 156.097 138.876L156.369 140.08C156.278 140.114 156.152 140.148 155.989 140.182C155.826 140.22 155.619 140.239 155.369 140.239C154.991 140.239 154.619 140.158 154.256 139.995C153.896 139.832 153.597 139.584 153.358 139.251C153.123 138.917 153.006 138.497 153.006 137.989V129.307ZM158.227 140.126V131.398H159.523V132.717H159.614C159.773 132.285 160.061 131.934 160.477 131.665C160.894 131.396 161.364 131.262 161.886 131.262C161.985 131.262 162.108 131.264 162.256 131.268C162.403 131.271 162.515 131.277 162.591 131.285V132.648C162.545 132.637 162.441 132.62 162.278 132.597C162.119 132.571 161.951 132.557 161.773 132.557C161.348 132.557 160.97 132.646 160.636 132.824C160.307 132.999 160.045 133.241 159.852 133.552C159.663 133.859 159.568 134.209 159.568 134.603V140.126H158.227ZM169.68 136.557V131.398H171.021V140.126H169.68V138.648H169.589C169.385 139.092 169.067 139.468 168.635 139.779C168.203 140.086 167.658 140.239 166.999 140.239C166.453 140.239 165.968 140.12 165.544 139.881C165.12 139.639 164.786 139.275 164.544 138.79C164.302 138.302 164.18 137.686 164.18 136.944V131.398H165.521V136.853C165.521 137.489 165.699 137.997 166.055 138.376C166.415 138.754 166.874 138.944 167.43 138.944C167.764 138.944 168.103 138.859 168.447 138.688C168.796 138.518 169.088 138.256 169.322 137.904C169.561 137.552 169.68 137.103 169.68 136.557ZM177.023 140.307C176.205 140.307 175.5 140.114 174.909 139.728C174.318 139.342 173.864 138.809 173.545 138.131C173.227 137.453 173.068 136.679 173.068 135.807C173.068 134.921 173.231 134.139 173.557 133.461C173.886 132.779 174.345 132.247 174.932 131.864C175.523 131.478 176.212 131.285 177 131.285C177.614 131.285 178.167 131.398 178.659 131.626C179.152 131.853 179.555 132.171 179.869 132.58C180.184 132.989 180.379 133.467 180.455 134.012H179.114C179.011 133.614 178.784 133.262 178.432 132.955C178.083 132.645 177.614 132.489 177.023 132.489C176.5 132.489 176.042 132.626 175.648 132.898C175.258 133.167 174.953 133.548 174.733 134.04C174.517 134.529 174.409 135.103 174.409 135.762C174.409 136.436 174.515 137.023 174.727 137.523C174.943 138.023 175.246 138.412 175.636 138.688C176.03 138.965 176.492 139.103 177.023 139.103C177.371 139.103 177.688 139.042 177.972 138.921C178.256 138.8 178.496 138.626 178.693 138.398C178.89 138.171 179.03 137.898 179.114 137.58H180.455C180.379 138.095 180.191 138.559 179.892 138.972C179.597 139.381 179.205 139.707 178.716 139.949C178.231 140.188 177.667 140.307 177.023 140.307ZM186.21 131.398V132.535H181.688V131.398H186.21ZM183.006 129.307H184.347V137.626C184.347 138.004 184.402 138.289 184.511 138.478C184.625 138.664 184.769 138.789 184.943 138.853C185.121 138.914 185.309 138.944 185.506 138.944C185.653 138.944 185.775 138.936 185.869 138.921C185.964 138.902 186.04 138.887 186.097 138.876L186.369 140.08C186.278 140.114 186.152 140.148 185.989 140.182C185.826 140.22 185.619 140.239 185.369 140.239C184.991 140.239 184.619 140.158 184.256 139.995C183.896 139.832 183.597 139.584 183.358 139.251C183.123 138.917 183.006 138.497 183.006 137.989V129.307ZM188.227 140.126V131.398H189.568V140.126H188.227ZM188.909 129.944C188.648 129.944 188.422 129.855 188.233 129.677C188.047 129.499 187.955 129.285 187.955 129.035C187.955 128.785 188.047 128.571 188.233 128.393C188.422 128.215 188.648 128.126 188.909 128.126C189.17 128.126 189.394 128.215 189.58 128.393C189.769 128.571 189.864 128.785 189.864 129.035C189.864 129.285 189.769 129.499 189.58 129.677C189.394 129.855 189.17 129.944 188.909 129.944ZM195.57 140.307C194.782 140.307 194.09 140.12 193.496 139.745C192.905 139.37 192.443 138.845 192.109 138.171C191.78 137.497 191.615 136.709 191.615 135.807C191.615 134.898 191.78 134.105 192.109 133.427C192.443 132.749 192.905 132.222 193.496 131.847C194.09 131.472 194.782 131.285 195.57 131.285C196.357 131.285 197.047 131.472 197.638 131.847C198.232 132.222 198.695 132.749 199.024 133.427C199.357 134.105 199.524 134.898 199.524 135.807C199.524 136.709 199.357 137.497 199.024 138.171C198.695 138.845 198.232 139.37 197.638 139.745C197.047 140.12 196.357 140.307 195.57 140.307ZM195.57 139.103C196.168 139.103 196.661 138.949 197.047 138.643C197.433 138.336 197.719 137.932 197.905 137.432C198.09 136.932 198.183 136.391 198.183 135.807C198.183 135.224 198.09 134.681 197.905 134.177C197.719 133.673 197.433 133.266 197.047 132.955C196.661 132.645 196.168 132.489 195.57 132.489C194.971 132.489 194.479 132.645 194.092 132.955C193.706 133.266 193.42 133.673 193.234 134.177C193.049 134.681 192.956 135.224 192.956 135.807C192.956 136.391 193.049 136.932 193.234 137.432C193.42 137.932 193.706 138.336 194.092 138.643C194.479 138.949 194.971 139.103 195.57 139.103ZM202.912 134.876V140.126H201.571V131.398H202.866V132.762H202.98C203.185 132.319 203.495 131.963 203.912 131.694C204.329 131.421 204.866 131.285 205.526 131.285C206.116 131.285 206.634 131.406 207.077 131.648C207.52 131.887 207.865 132.251 208.111 132.739C208.357 133.224 208.48 133.838 208.48 134.58V140.126H207.139V134.671C207.139 133.985 206.961 133.451 206.605 133.069C206.249 132.682 205.76 132.489 205.139 132.489C204.711 132.489 204.329 132.582 203.991 132.768C203.658 132.953 203.395 133.224 203.202 133.58C203.009 133.936 202.912 134.368 202.912 134.876Z" fill="url(#paint1_linear_158_9)"/>
<defs>
<linearGradient id="paint0_linear_158_9" x1="151.733" y1="49.7959" x2="115.875" y2="94.0592" gradientUnits="userSpaceOnUse">
<stop stop-color="#17053E"/>
<stop offset="0.9999" stop-color="#1B1A1F"/>
<stop offset="1" stop-color="#5536D1" stop-opacity="0"/>
</linearGradient>
<linearGradient id="paint1_linear_158_9" x1="115.5" y1="128.126" x2="102" y2="144.126" gradientUnits="userSpaceOnUse">
<stop stop-color="#A860B4"/>
<stop offset="1" stop-color="#A209BB"/>
</linearGradient>
</defs>
</svg>
